<?xml version="1.0" standalone="no"?>
<!DOCTYPE svg PUBLIC "-//W3C//DTD SVG 20010904//EN"
 "http://www.w3.org/TR/2001/REC-SVG-20010904/DTD/svg10.dtd">
<svg version="1.0" xmlns="http://www.w3.org/2000/svg"
 width="500.000000pt" height="500.000000pt" viewBox="0 0 500.000000 500.000000"
 preserveAspectRatio="xMidYMid meet">

<g transform="translate(0.000000,500.000000) scale(0.100000,-0.100000)"
fill="#000000" stroke="none">
<path d="M2160 4349 c-94 -24 -217 -83 -293 -140 -119 -89 -240 -271 -282
-424 -13 -45 -18 -124 -22 -321 l-6 -261 -343 -343 c-245 -245 -345 -350 -349
-371 -23 -104 96 -181 181 -116 16 12 138 130 269 262 l240 240 3 -340 2 -340
-344 -345 c-301 -301 -346 -350 -351 -383 -10 -53 10 -94 58 -118 78 -40 83
-37 375 254 l262 261 0 -389 c0 -215 4 -418 9 -452 17 -116 93 -239 187 -303
137 -92 136 -92 740 -88 l511 3 84 42 c120 59 182 126 238 256 l26 62 3 434 3
434 262 -260 c280 -279 291 -287 362 -263 50 16 75 53 75 109 l0 45 -350 351
-350 350 0 345 0 345 268 -268 268 -267 48 0 c41 0 53 5 82 34 37 37 45 86 23
128 -6 11 -164 173 -350 360 l-339 339 0 222 c0 274 -15 362 -86 504 -104 210
-283 353 -519 413 -67 17 -110 20 -299 19 -186 0 -233 -3 -296 -20z m538 -224
c143 -34 272 -126 343 -246 70 -117 81 -167 87 -386 2 -106 1 -193 -2 -193 -4
0 -35 19 -68 42 -34 23 -94 53 -132 66 -69 25 -81 26 -381 30 -380 5 -500 -4
-590 -47 -36 -16 -85 -44 -109 -60 -25 -17 -48 -31 -51 -31 -4 0 -5 87 -3 193
6 221 19 280 88 386 81 125 192 206 337 246 70 19 399 19 481 0z m182 -951
c108 -52 183 -143 223 -269 22 -69 22 -80 22 -655 0 -648 3 -616 -66 -695 -65
-73 -39 -70 -579 -70 -267 0 -502 4 -524 8 -55 12 -128 87 -147 152 -11 41
-14 152 -14 620 0 525 1 575 18 630 26 84 48 122 107 188 57 63 127 105 199
117 25 5 192 8 371 7 l325 -2 65 -31z m-420 -1919 c542 0 545 0 600 22 30 13
59 23 64 23 4 0 6 -60 4 -132 -3 -111 -8 -140 -26 -174 -27 -53 -90 -107 -141
-122 -27 -9 -180 -12 -507 -12 -517 0 -504 -1 -582 65 -62 52 -75 94 -80 247
l-4 137 63 -27 64 -27 545 0z"/>
</g>
</svg>
